#define 9bda97b73a3641e9c91cb47397784ec2zA9MzcPgxn5ojSNo_width 64
#define 9bda97b73a3641e9c91cb47397784ec2zA9MzcPgxn5ojSNo_height 64
static char 9bda97b73a3641e9c91cb47397784ec2zA9MzcPgxn5ojSNo_bits[] = {
  0x00, 0x30, 0x00, 0x00, 0x00, 0x00, 0x00, 0x00, 0x00, 0x70, 0x00, 0x00, 
  0x00, 0x00, 0x00, 0x00, 0x00, 0xF8, 0x00, 0x00, 0x00, 0x00, 0x00, 0x00, 
  0x00, 0xF8, 0x01, 0x00, 0x00, 0x00, 0x00, 0x00, 0x00, 0xF8, 0x01, 0x00, 
  0x00, 0x00, 0x00, 0x00, 0x00, 0xF8, 0x03, 0x00, 0x00, 0x00, 0x00, 0x00, 
  0x00, 0xF8, 0x07, 0x00, 0x00, 0x00, 0x00, 0x00, 0x00, 0xF8, 0x0F, 0x00, 
  0x00, 0x00, 0x00, 0x00, 0x00, 0x78, 0x1F, 0x00, 0x00, 0x00, 0x00, 0x00, 
  0x00, 0x78, 0x3E, 0x00, 0x00, 0x00, 0x00, 0x00, 0x00, 0x78, 0x7E, 0x00, 
  0x00, 0x00, 0x00, 0x00, 0x00, 0x78, 0xFC, 0x00, 0x00, 0x00, 0x00, 0x00, 
  0x00, 0x78, 0xF8, 0x01, 0x00, 0x00, 0x00, 0x00, 0x00, 0x78, 0xF0, 0x07, 
  0x00, 0x00, 0x00, 0x00, 0x00, 0x78, 0xC0, 0x07, 0x00, 0x00, 0x00, 0x00, 
  0x00, 0x78, 0x80, 0x0F, 0x00, 0x00, 0x00, 0x50, 0x00, 0x78, 0x00, 0x1F, 
  0x00, 0x00, 0x00, 0xFE, 0x00, 0x78, 0x00, 0x1E, 0x00, 0x00, 0xC0, 0xFF, 
  0x00, 0x70, 0x00, 0x3C, 0x00, 0x00, 0xFC, 0xFF, 0x00, 0x78, 0x00, 0x3C, 
  0x00, 0x80, 0xFF, 0xFF, 0x00, 0x78, 0x00, 0x3C, 0x00, 0xF8, 0xFF, 0xF1, 
  0x00, 0x78, 0x00, 0x3C, 0x00, 0xFF, 0x3F, 0xF0, 0x00, 0x78, 0x00, 0x3C, 
  0xF0, 0xFF, 0x03, 0xF0, 0x00, 0x78, 0x00, 0x1E, 0xFC, 0x7F, 0x00, 0xF8, 
  0x00, 0x78, 0x00, 0x1E, 0xFC, 0x07, 0x80, 0xFF, 0x00, 0x78, 0x80, 0x1F, 
  0xFC, 0x00, 0xF0, 0xFF, 0x00, 0x78, 0xD0, 0x0F, 0x3E, 0x00, 0xFF, 0xFF, 
  0x00, 0x78, 0xF8, 0x07, 0x1C, 0xE0, 0xFF, 0xF7, 0x00, 0x78, 0xF8, 0x03, 
  0x1C, 0xFE, 0x7F, 0xF0, 0x00, 0x78, 0xF8, 0x00, 0xFC, 0xFF, 0x0F, 0xF0, 
  0xC0, 0x79, 0x00, 0x00, 0xFE, 0xFF, 0x00, 0xF0, 0xF0, 0x7F, 0x00, 0x00, 
  0xFC, 0x1F, 0x00, 0xF0, 0xFC, 0x7F, 0x00, 0x00, 0xFC, 0x01, 0x00, 0xF0, 
  0xFC, 0x7F, 0x00, 0x00, 0x3C, 0x00, 0x00, 0xF0, 0x3E, 0x7E, 0x00, 0x00, 
  0x1C, 0x00, 0x00, 0xF0, 0x1F, 0x7C, 0x00, 0x00, 0x3E, 0x00, 0x00, 0xF0, 
  0x0F, 0x78, 0x00, 0x00, 0x1C, 0x00, 0x00, 0xF0, 0x0F, 0x78, 0x00, 0x00, 
  0x3C, 0x00, 0x00, 0xF0, 0x0F, 0x78, 0x00, 0x00, 0x1E, 0x00, 0x00, 0xF0, 
  0x0F, 0x78, 0x00, 0x00, 0x3C, 0x00, 0x00, 0xF0, 0x1E, 0x7C, 0x00, 0x00, 
  0x1C, 0x00, 0x00, 0xF0, 0xFE, 0x3F, 0x00, 0x00, 0x3C, 0x00, 0x00, 0xF1, 
  0xFC, 0x1F, 0x00, 0x00, 0x1C, 0x00, 0xE0, 0xFF, 0xF8, 0x0F, 0x00, 0x00, 
  0x3C, 0x00, 0xF8, 0xFF, 0xF0, 0x07, 0x00, 0x00, 0x3E, 0x00, 0xF8, 0xFF, 
  0x00, 0x00, 0x00, 0x00, 0x1C, 0x00, 0x7C, 0xFC, 0x00, 0x00, 0x00, 0x00, 
  0x1C, 0x00, 0x3C, 0xF8, 0x00, 0x00, 0x00, 0x00, 0x3C, 0x00, 0x1E, 0xF0, 
  0x00, 0x00, 0x00, 0x00, 0x1E, 0x00, 0x1E, 0xF0, 0x00, 0x00, 0x00, 0xF0, 
  0x3C, 0x00, 0x1E, 0xF0, 0x00, 0x00, 0x00, 0xFC, 0x3F, 0x00, 0x1E, 0xF0, 
  0x00, 0x00, 0x00, 0xFF, 0x1F, 0x00, 0x3E, 0x78, 0x00, 0x00, 0x00, 0xFF, 
  0x1F, 0x00, 0x7C, 0x7E, 0x00, 0x00, 0x80, 0x0F, 0x3F, 0x00, 0xF8, 0x3F, 
  0x00, 0x00, 0x80, 0x07, 0x1E, 0x00, 0xF8, 0x3F, 0x00, 0x00, 0x80, 0x03, 
  0x3E, 0x00, 0xE0, 0x0F, 0x00, 0x00, 0xC0, 0x03, 0x3C, 0x00, 0x00, 0x01, 
  0x00, 0x00, 0x80, 0x07, 0x1E, 0x00, 0x00, 0x00, 0x00, 0x00, 0x80, 0x07, 
  0x1E, 0x00, 0x00, 0x00, 0x00, 0x00, 0x80, 0x0F, 0x1F, 0x00, 0x00, 0x00, 
  0x00, 0x00, 0x00, 0xFF, 0x0F, 0x00, 0x00, 0x00, 0x00, 0x00, 0x00, 0xFF, 
  0x0F, 0x00, 0x00, 0x00, 0x00, 0x00, 0x00, 0xFC, 0x03, 0x00, 0x00, 0x00, 
  0x00, 0x00, 0x00, 0xE8, 0x01, 0x00, 0x00, 0x00, };
